<mxfile host="Electron" modified="2024-05-10T07:18:27.058Z" agent="Mozilla/5.0 (Macintosh; Intel Mac OS X 10_15_7) AppleWebKit/537.36 (KHTML, like Gecko) draw.io/22.1.18 Chrome/120.0.6099.199 Electron/28.1.2 Safari/537.36" etag="vOakLczBKQeHEcHR8DEf" version="22.1.18" type="device">
  <diagram name="第 1 页" id="pNb9VITNDtulQl9c8-C8">
    <mxGraphModel dx="1012" dy="645" grid="0" gridSize="10" guides="1" tooltips="1" connect="1" arrows="1" fold="1" page="1" pageScale="1" pageWidth="1169" pageHeight="1654" math="0" shadow="0">
      <root>
        <mxCell id="0" />
        <mxCell id="1" parent="0" />
        <mxCell id="onyKZX9Ivyj4umJPjB3q-1" value="" style="rounded=0;whiteSpace=wrap;html=1;strokeColor=none;fillColor=none;" parent="1" vertex="1">
          <mxGeometry x="114" y="168" width="724" height="340" as="geometry" />
        </mxCell>
        <mxCell id="w6jYZBwd9yEUk49h7T1w-15" value="" style="rounded=0;whiteSpace=wrap;html=1;" parent="1" vertex="1">
          <mxGeometry x="132" y="242" width="687" height="61" as="geometry" />
        </mxCell>
        <mxCell id="w6jYZBwd9yEUk49h7T1w-16" value="&lt;font style=&quot;font-size: 18px;&quot; face=&quot;Times New Roman&quot;&gt;&lt;b&gt;Worker 1&lt;/b&gt;&lt;br&gt;&lt;/font&gt;" style="text;html=1;strokeColor=none;fillColor=none;align=center;verticalAlign=middle;whiteSpace=wrap;rounded=0;" parent="1" vertex="1">
          <mxGeometry x="129" y="257" width="102" height="30" as="geometry" />
        </mxCell>
        <mxCell id="w6jYZBwd9yEUk49h7T1w-17" value="" style="endArrow=none;html=1;rounded=0;entryX=0.137;entryY=0;entryDx=0;entryDy=0;entryPerimeter=0;" parent="1" target="w6jYZBwd9yEUk49h7T1w-15" edge="1">
          <mxGeometry width="50" height="50" relative="1" as="geometry">
            <mxPoint x="226" y="302" as="sourcePoint" />
            <mxPoint x="225.003" y="243.32" as="targetPoint" />
          </mxGeometry>
        </mxCell>
        <mxCell id="w6jYZBwd9yEUk49h7T1w-18" value="&lt;font face=&quot;Times New Roman&quot;&gt;&lt;b&gt;任务 1&lt;/b&gt;&lt;/font&gt;" style="rounded=1;whiteSpace=wrap;html=1;fillColor=#f5f5f5;fontColor=#000000;strokeColor=#000000;" parent="1" vertex="1">
          <mxGeometry x="238" y="257" width="53" height="30" as="geometry" />
        </mxCell>
        <mxCell id="w6jYZBwd9yEUk49h7T1w-19" value="&lt;font face=&quot;Times New Roman&quot;&gt;&lt;b&gt;任务 5&lt;/b&gt;&lt;/font&gt;" style="rounded=1;whiteSpace=wrap;html=1;fillColor=#f5f5f5;fontColor=#000000;strokeColor=#000000;" parent="1" vertex="1">
          <mxGeometry x="302" y="257" width="53" height="30" as="geometry" />
        </mxCell>
        <mxCell id="w6jYZBwd9yEUk49h7T1w-20" value="&lt;font face=&quot;Times New Roman&quot;&gt;&lt;b&gt;任务 9&lt;br&gt;&lt;/b&gt;&lt;/font&gt;" style="rounded=1;whiteSpace=wrap;html=1;fillColor=#f5f5f5;fontColor=#000000;strokeColor=#000000;" parent="1" vertex="1">
          <mxGeometry x="367" y="257" width="53" height="30" as="geometry" />
        </mxCell>
        <mxCell id="w6jYZBwd9yEUk49h7T1w-28" value="" style="rounded=0;whiteSpace=wrap;html=1;" parent="1" vertex="1">
          <mxGeometry x="132" y="303" width="687" height="61" as="geometry" />
        </mxCell>
        <mxCell id="w6jYZBwd9yEUk49h7T1w-29" value="&lt;font style=&quot;font-size: 18px;&quot; face=&quot;Times New Roman&quot;&gt;&lt;b&gt;Worker 2&lt;/b&gt;&lt;br&gt;&lt;/font&gt;" style="text;html=1;strokeColor=none;fillColor=none;align=center;verticalAlign=middle;whiteSpace=wrap;rounded=0;" parent="1" vertex="1">
          <mxGeometry x="129" y="318" width="102" height="30" as="geometry" />
        </mxCell>
        <mxCell id="w6jYZBwd9yEUk49h7T1w-30" value="" style="endArrow=none;html=1;rounded=0;entryX=0.137;entryY=0;entryDx=0;entryDy=0;entryPerimeter=0;" parent="1" target="w6jYZBwd9yEUk49h7T1w-28" edge="1">
          <mxGeometry width="50" height="50" relative="1" as="geometry">
            <mxPoint x="226" y="363" as="sourcePoint" />
            <mxPoint x="225.003" y="304.32" as="targetPoint" />
          </mxGeometry>
        </mxCell>
        <mxCell id="w6jYZBwd9yEUk49h7T1w-31" value="&lt;font face=&quot;Times New Roman&quot;&gt;&lt;b&gt;任务 2&lt;/b&gt;&lt;/font&gt;" style="rounded=1;whiteSpace=wrap;html=1;fillColor=#f5f5f5;fontColor=#000000;strokeColor=#000000;" parent="1" vertex="1">
          <mxGeometry x="251" y="318" width="53" height="30" as="geometry" />
        </mxCell>
        <mxCell id="w6jYZBwd9yEUk49h7T1w-32" value="&lt;font face=&quot;Times New Roman&quot;&gt;&lt;b&gt;任务 6&lt;/b&gt;&lt;/font&gt;" style="rounded=1;whiteSpace=wrap;html=1;fillColor=#f5f5f5;fontColor=#000000;strokeColor=#000000;" parent="1" vertex="1">
          <mxGeometry x="315" y="318" width="53" height="30" as="geometry" />
        </mxCell>
        <mxCell id="w6jYZBwd9yEUk49h7T1w-33" value="&lt;font face=&quot;Times New Roman&quot;&gt;&lt;b&gt;任务 10&lt;br&gt;&lt;/b&gt;&lt;/font&gt;" style="rounded=1;whiteSpace=wrap;html=1;fillColor=#f5f5f5;fontColor=#000000;strokeColor=#000000;" parent="1" vertex="1">
          <mxGeometry x="380" y="318" width="53" height="30" as="geometry" />
        </mxCell>
        <mxCell id="w6jYZBwd9yEUk49h7T1w-34" value="" style="rounded=0;whiteSpace=wrap;html=1;" parent="1" vertex="1">
          <mxGeometry x="132" y="364" width="687" height="61" as="geometry" />
        </mxCell>
        <mxCell id="w6jYZBwd9yEUk49h7T1w-35" value="&lt;font style=&quot;font-size: 18px;&quot; face=&quot;Times New Roman&quot;&gt;&lt;b&gt;Worker 3&lt;/b&gt;&lt;br&gt;&lt;/font&gt;" style="text;html=1;strokeColor=none;fillColor=none;align=center;verticalAlign=middle;whiteSpace=wrap;rounded=0;" parent="1" vertex="1">
          <mxGeometry x="129" y="379" width="102" height="30" as="geometry" />
        </mxCell>
        <mxCell id="w6jYZBwd9yEUk49h7T1w-36" value="" style="endArrow=none;html=1;rounded=0;entryX=0.137;entryY=0;entryDx=0;entryDy=0;entryPerimeter=0;" parent="1" target="w6jYZBwd9yEUk49h7T1w-34" edge="1">
          <mxGeometry width="50" height="50" relative="1" as="geometry">
            <mxPoint x="226" y="424" as="sourcePoint" />
            <mxPoint x="225.003" y="365.32" as="targetPoint" />
          </mxGeometry>
        </mxCell>
        <mxCell id="w6jYZBwd9yEUk49h7T1w-37" value="&lt;font face=&quot;Times New Roman&quot;&gt;&lt;b&gt;任务 3&lt;/b&gt;&lt;/font&gt;" style="rounded=1;whiteSpace=wrap;html=1;fillColor=#f5f5f5;fontColor=#000000;strokeColor=#000000;" parent="1" vertex="1">
          <mxGeometry x="263" y="379" width="53" height="30" as="geometry" />
        </mxCell>
        <mxCell id="w6jYZBwd9yEUk49h7T1w-38" value="&lt;font face=&quot;Times New Roman&quot;&gt;&lt;b&gt;任务 7&lt;/b&gt;&lt;/font&gt;" style="rounded=1;whiteSpace=wrap;html=1;fillColor=#f5f5f5;fontColor=#333333;strokeColor=#000000;" parent="1" vertex="1">
          <mxGeometry x="328" y="379" width="53" height="30" as="geometry" />
        </mxCell>
        <mxCell id="w6jYZBwd9yEUk49h7T1w-40" value="" style="rounded=0;whiteSpace=wrap;html=1;" parent="1" vertex="1">
          <mxGeometry x="132" y="425" width="687" height="61" as="geometry" />
        </mxCell>
        <mxCell id="w6jYZBwd9yEUk49h7T1w-41" value="&lt;font style=&quot;font-size: 18px;&quot; face=&quot;Times New Roman&quot;&gt;&lt;b&gt;Worker 4&lt;/b&gt;&lt;br&gt;&lt;/font&gt;" style="text;html=1;strokeColor=none;fillColor=none;align=center;verticalAlign=middle;whiteSpace=wrap;rounded=0;" parent="1" vertex="1">
          <mxGeometry x="129" y="440" width="102" height="30" as="geometry" />
        </mxCell>
        <mxCell id="w6jYZBwd9yEUk49h7T1w-42" value="" style="endArrow=none;html=1;rounded=0;entryX=0.137;entryY=0;entryDx=0;entryDy=0;entryPerimeter=0;" parent="1" target="w6jYZBwd9yEUk49h7T1w-40" edge="1">
          <mxGeometry width="50" height="50" relative="1" as="geometry">
            <mxPoint x="226" y="485" as="sourcePoint" />
            <mxPoint x="225.003" y="426.32" as="targetPoint" />
          </mxGeometry>
        </mxCell>
        <mxCell id="w6jYZBwd9yEUk49h7T1w-43" value="&lt;font face=&quot;Times New Roman&quot;&gt;&lt;b&gt;任务 4&lt;/b&gt;&lt;/font&gt;" style="rounded=1;whiteSpace=wrap;html=1;fillColor=#f5f5f5;fontColor=#000000;strokeColor=#000000;" parent="1" vertex="1">
          <mxGeometry x="276" y="440" width="53" height="30" as="geometry" />
        </mxCell>
        <mxCell id="w6jYZBwd9yEUk49h7T1w-44" value="&lt;font face=&quot;Times New Roman&quot;&gt;&lt;b&gt;任务 8&lt;/b&gt;&lt;/font&gt;" style="rounded=1;whiteSpace=wrap;html=1;fillColor=#f5f5f5;fontColor=#000000;strokeColor=#000000;" parent="1" vertex="1">
          <mxGeometry x="341" y="440.5" width="53" height="30" as="geometry" />
        </mxCell>
        <mxCell id="zjhKCJipI0m-9qXYECHQ-3" value="时间" style="text;html=1;strokeColor=none;fillColor=none;align=center;verticalAlign=middle;whiteSpace=wrap;rounded=0;fontFamily=Times New Roman;fontSize=20;horizontal=1;" parent="1" vertex="1">
          <mxGeometry x="437" y="189" width="60" height="30" as="geometry" />
        </mxCell>
        <mxCell id="zjhKCJipI0m-9qXYECHQ-4" value="" style="endArrow=classic;html=1;rounded=0;fontSize=24;fontFamily=Times New Roman;" parent="1" edge="1">
          <mxGeometry width="50" height="50" relative="1" as="geometry">
            <mxPoint x="320" y="223" as="sourcePoint" />
            <mxPoint x="632" y="223" as="targetPoint" />
          </mxGeometry>
        </mxCell>
        <mxCell id="iLWs8CyXJcU1j-3lrmkh-1" value="" style="endArrow=none;html=1;rounded=0;entryX=0.438;entryY=0.016;entryDx=0;entryDy=0;entryPerimeter=0;dashed=1;strokeWidth=2;" parent="1" target="w6jYZBwd9yEUk49h7T1w-15" edge="1">
          <mxGeometry width="50" height="50" relative="1" as="geometry">
            <mxPoint x="434" y="486" as="sourcePoint" />
            <mxPoint x="434.28" y="182.01300000000003" as="targetPoint" />
          </mxGeometry>
        </mxCell>
        <mxCell id="iLWs8CyXJcU1j-3lrmkh-2" value="" style="shape=curlyBracket;whiteSpace=wrap;html=1;rounded=1;labelPosition=left;verticalLabelPosition=middle;align=right;verticalAlign=middle;direction=north;" parent="1" vertex="1">
          <mxGeometry x="438" y="496" width="375" height="20" as="geometry" />
        </mxCell>
        <mxCell id="iLWs8CyXJcU1j-3lrmkh-3" value="&lt;span style=&quot;font-size: 16px;&quot;&gt;节省时间&lt;/span&gt;" style="text;html=1;strokeColor=none;fillColor=none;align=center;verticalAlign=middle;whiteSpace=wrap;rounded=0;" parent="1" vertex="1">
          <mxGeometry x="552.5" y="514" width="146" height="30" as="geometry" />
        </mxCell>
      </root>
    </mxGraphModel>
  </diagram>
</mxfile>
